<?xml version="1.0" encoding="UTF-8"?><svg id="Layer_1" xmlns="http://www.w3.org/2000/svg" viewBox="0 0 445.69 523.23"><defs><style>.cls-1{fill:#264790;}</style></defs><path class="cls-1" d="m79.02,139.48s.39,6.65,1.96,10.76,5.87,9.2,5.87,9.2l9,12.91s6.22,6.46,8.02,12.72.78,20.15.78,20.15c0,0-1.74-6.65-4.19-13.3-2.95-6.37-5.39-9.98-5.39-9.98l-7.83-9.59s-7.24-12.15-8.22-16.53c-1.37-7.53,0-12.42,0-14.38"/><path class="cls-1" d="m90.17,80.78s.72,8.09,1.5,10.37,5.93,10.57,5.93,10.57l7.33,10.96,10.67,15.46s4.37,6.78,6.65,11.35,0,19.17,0,19.17c0,0-.2-3.65-1.76-9s-2.93-6.85-2.93-6.85l-4.89-7.24-6.46-9.39-6.85-9.78-4.7-6.46-3-5.87s.39.98-1.5-3.33,0-19.96,0-19.96Z"/><path class="cls-1" d="m83.72,106.61s.19,5.46,1.57,9.78-.26,1.04,3.52,9.2,5.48,8.8,7.43,11.35,8.7,11.35,8.7,11.35l8.71,12.52,6.65,11.54s3.33,4.96,4.3,7.43,1.76,9.78,1.76,9.78l-.98,15.65s.59-5.74-1.76-11.74-5.48-11.54-5.48-11.54l-7.24-11.15-8.02-12.13-6.07-7.22-5.15-7.65-6.2-9.39s-1.76-5.87-1.76-8.8v-18.98Z"/></svg>