<?xml version="1.0" encoding="UTF-8"?><svg id="Layer_1" xmlns="http://www.w3.org/2000/svg" viewBox="0 0 445.69 523.23"><defs><style>.cls-1{fill:#264790;}</style></defs><path class="cls-1" d="m2.04,210.04s.39,6.65,1.96,10.76,5.87,9.2,5.87,9.2l9,12.91s6.22,6.46,8.02,12.72.78,20.15.78,20.15c0,0-1.74-6.65-4.19-13.3-2.95-6.37-5.39-9.98-5.39-9.98l-7.83-9.59s-7.24-12.15-8.22-16.53c-1.37-7.53,0-12.42,0-14.38"/><path class="cls-1" d="m13.2,151.35s.72,8.09,1.5,10.37,5.93,10.57,5.93,10.57l7.33,10.96,10.67,15.46s4.37,6.78,6.65,11.35,0,19.17,0,19.17c0,0-.2-3.65-1.76-9s-2.93-6.85-2.93-6.85l-4.89-7.24-6.46-9.39-6.85-9.78-4.7-6.46-3-5.87s.39.98-1.5-3.33,0-19.96,0-19.96Z"/><path class="cls-1" d="m6.74,177.17s.19,5.46,1.57,9.78-.26,1.04,3.52,9.2,5.48,8.8,7.43,11.35,8.7,11.35,8.7,11.35l8.71,12.52,6.65,11.54s3.33,4.96,4.3,7.43,1.76,9.78,1.76,9.78l-.98,15.65s.59-5.74-1.76-11.74-5.48-11.54-5.48-11.54l-7.24-11.15-8.02-12.13-6.07-7.22-5.15-7.65-6.2-9.39s-1.76-5.87-1.76-8.8v-18.98Z"/><text/><text/><path class="cls-1" d="m67.34,229.82h.43c.15.1.37.23.65.39.28.16.6.32.95.48.35.16.73.3,1.13.41s.8.18,1.2.18.77-.06,1.09-.19c.32-.13.58-.3.8-.53s.38-.5.5-.81c.11-.32.17-.67.17-1.05,0-.36-.05-.69-.15-1s-.26-.57-.48-.8-.52-.4-.89-.53c-.37-.13-.83-.19-1.37-.19h-1.22v-1.33h1.05c.86,0,1.51-.19,1.94-.58.43-.38.65-.99.65-1.81,0-.3-.03-.58-.09-.83s-.17-.47-.31-.66-.35-.33-.6-.43c-.25-.1-.57-.16-.95-.16-.33,0-.66.05-1.01.16-.34.11-.67.24-.99.39-.31.15-.6.3-.86.46s-.46.28-.61.38h-.43v-1.79c.14-.05.31-.11.52-.19s.45-.16.72-.23c.28-.08.59-.14.95-.2s.75-.08,1.19-.08c.58,0,1.13.06,1.66.19.53.13.99.32,1.39.56.4.25.72.55.96.92.24.36.36.78.36,1.26,0,.26-.04.54-.13.84-.09.3-.24.59-.46.88s-.51.55-.88.79c-.37.24-.83.44-1.39.58v.13c.23.03.47.07.72.13.25.06.5.14.74.25.24.11.47.24.7.4.22.16.42.35.58.57.17.22.3.49.4.79.1.3.15.64.15,1.02,0,.41-.07.8-.21,1.15-.14.35-.34.67-.58.95-.25.28-.53.53-.87.75s-.69.4-1.07.54c-.38.15-.78.26-1.19.33-.41.07-.82.11-1.22.11-.44,0-.85-.03-1.24-.08s-.73-.12-1.04-.2c-.31-.08-.58-.16-.81-.24s-.42-.15-.57-.21v-1.88Z"/><path class="cls-1" d="m83.45,229.74c-.74,0-1.42-.12-2.03-.36s-1.14-.58-1.58-1.04-.78-1-1.02-1.64c-.24-.64-.36-1.37-.36-2.18,0-.74.12-1.43.36-2.07.24-.64.58-1.19,1.02-1.66.44-.47.98-.84,1.6-1.11.62-.27,1.33-.41,2.11-.41.85,0,1.58.14,2.21.43.63.28,1.15.67,1.56,1.15.41.48.72,1.03.92,1.66s.31,1.29.31,1.98c0,.74-.12,1.42-.36,2.06-.24.64-.58,1.19-1.01,1.67s-.97.84-1.6,1.11-1.33.41-2.11.41Zm.13-1.01c.39,0,.74-.06,1.04-.17.3-.11.57-.26.79-.46.23-.19.42-.42.57-.68s.28-.54.38-.83c.1-.29.16-.6.2-.92.04-.32.06-.63.06-.93,0-.37-.03-.74-.08-1.1s-.13-.71-.25-1.04-.25-.63-.43-.91-.38-.52-.62-.73c-.24-.2-.51-.36-.82-.48-.31-.11-.66-.17-1.04-.17s-.74.06-1.04.17c-.3.12-.57.27-.79.47-.23.2-.42.43-.57.7-.16.26-.28.55-.38.84-.1.3-.16.6-.2.92s-.06.62-.06.92c0,.34.02.68.07,1.03.05.35.12.69.23,1.01.1.32.24.63.4.92s.37.54.61.75c.24.21.52.38.83.5.32.12.68.18,1.09.18Z"/><path class="cls-1" d="m96.43,225.82h1.13l.25,1.71c.01.08.06.16.15.23.09.07.16.13.22.18.14.09.29.18.46.27s.34.17.52.24c.19.07.38.13.59.17.21.04.43.07.67.07.45,0,.85-.05,1.21-.14.36-.09.66-.23.9-.41.25-.18.43-.39.56-.64.13-.25.2-.53.2-.84,0-.48-.15-.88-.44-1.2-.29-.32-.69-.58-1.18-.79-.25-.1-.49-.19-.73-.28-.24-.09-.48-.17-.71-.26-.23-.08-.47-.17-.7-.25-.23-.08-.45-.17-.67-.26-.68-.28-1.21-.68-1.6-1.19-.39-.51-.58-1.12-.58-1.83,0-.47.11-.91.32-1.31.21-.4.5-.75.87-1.04.37-.29.8-.52,1.3-.68.5-.16,1.04-.25,1.61-.25.35,0,.69.02,1.01.05.32.03.64.08.93.13.3.05.58.11.86.17.28.06.55.12.8.18v3.11h-1.12l-.25-1.63c-.01-.08-.06-.15-.15-.23-.09-.08-.16-.14-.23-.18-.09-.06-.19-.12-.3-.18-.11-.06-.24-.11-.38-.16-.14-.05-.3-.09-.47-.12-.17-.03-.37-.04-.58-.04-.41,0-.77.04-1.09.13-.32.09-.59.21-.81.36-.22.15-.38.33-.5.53-.11.2-.17.42-.17.65,0,.21.03.41.08.61.05.2.15.38.28.56.13.18.31.34.53.5.22.15.5.29.84.42.22.08.44.16.66.24s.44.16.66.24c.22.08.45.17.68.26s.48.19.73.3c.28.12.55.26.82.43.27.17.51.38.72.62.21.24.38.53.52.86s.2.71.2,1.15-.09.89-.27,1.31c-.18.42-.46.8-.83,1.12-.38.33-.87.59-1.46.79s-1.31.29-2.15.29c-.29,0-.6-.02-.92-.07s-.65-.11-.98-.18c-.33-.07-.67-.15-1.01-.24-.34-.09-.67-.18-1.01-.27v-3.2Z"/><path class="cls-1" d="m108.09,221.44h-1.46v-.86c.24-.03.46-.07.65-.1s.36-.09.5-.18c.14-.09.25-.21.34-.37.08-.16.13-.39.15-.68l.08-1.27,1.45-.26v2.7h3.21v1.02h-3.21v5.76c0,.2.06.37.18.51.12.14.27.25.45.34s.36.15.55.19c.19.04.36.06.5.06.1,0,.21,0,.33-.03.12-.02.24-.04.36-.07s.23-.06.33-.09c.1-.03.19-.06.25-.09h.33v.74c-.08.05-.2.12-.38.22-.18.1-.38.19-.61.29-.23.1-.48.18-.75.25-.27.07-.53.11-.78.11-.33,0-.64-.04-.94-.12-.3-.08-.56-.2-.79-.35s-.41-.34-.54-.56-.2-.47-.2-.75v-6.41Z"/><path class="cls-1" d="m120.2,228.8l1.33-.52c.08-.03.14-.07.2-.12s.09-.14.09-.26v-8.79c0-.11-.03-.19-.08-.25-.05-.05-.12-.09-.2-.12l-1.33-.47v-.66h4.47l2.78,7.89.35,1.35h.17l3.15-9.24h4.41v.66l-1.31.47c-.08.03-.15.07-.21.12-.07.05-.1.14-.1.25v8.84c0,.12.03.21.09.26.06.05.13.1.23.13l1.31.46v.68h-5v-.68l1.3-.46c.09-.03.16-.07.22-.13.06-.06.09-.15.09-.27v-9.42h-.2l-.37,1.2-2.83,7.94-.75,1.8h-.99l-3.44-9.74-.35-1.2h-.17v9.37c0,.12.03.2.08.25.05.05.12.09.2.12l1.3.52v.68h-4.43v-.68Z"/><path class="cls-1" d="m143.51,228.12c-.24.33-.5.6-.78.8-.28.2-.56.36-.85.47-.28.11-.56.18-.83.22-.27.04-.51.05-.73.05-.43,0-.8-.07-1.13-.22s-.61-.34-.83-.57-.4-.51-.52-.82c-.12-.31-.18-.63-.18-.96,0-.39.07-.73.2-1.04.14-.3.32-.57.54-.8.23-.23.49-.42.79-.58.3-.16.61-.29.93-.39.32-.1.65-.17.98-.22.33-.05.64-.07.93-.07.06,0,.16,0,.29.02.14.01.28.02.43.04.15.02.29.03.42.05s.23.03.29.03v-1.13c0-.32-.04-.59-.13-.81-.09-.22-.21-.39-.37-.53s-.35-.23-.56-.29c-.22-.06-.46-.09-.71-.09-.28,0-.56.05-.85.15-.29.1-.57.22-.83.36-.26.14-.51.29-.74.44s-.42.28-.57.38h-.37v-1.69c.26-.09.52-.17.78-.26.26-.09.53-.17.81-.24.29-.07.59-.13.92-.17.32-.04.69-.07,1.09-.07s.82.04,1.21.12c.39.08.74.23,1.04.44s.55.51.73.88c.18.38.27.86.27,1.46v4.62c0,.11.02.21.07.3.05.09.11.17.19.23s.16.12.26.15c.1.04.19.05.29.05.07,0,.13,0,.2-.03.07-.02.13-.04.21-.07.07-.03.14-.06.21-.09s.14-.07.2-.1h.15v.78c-.08.06-.19.13-.33.21-.14.08-.29.16-.45.24-.16.08-.32.14-.48.2-.16.05-.31.08-.44.08-.27,0-.5-.03-.7-.1-.2-.07-.37-.16-.5-.29s-.23-.29-.3-.48c-.07-.19-.1-.42-.1-.67h-.13Zm-.05-3.13c-.59,0-1.14.02-1.63.07s-.91.13-1.26.26c-.35.13-.62.31-.81.55s-.29.55-.29.95c0,.31.05.57.16.78s.23.37.39.49c.16.12.34.2.53.25.2.05.39.07.57.07s.39-.02.61-.06c.22-.04.44-.1.66-.18.21-.08.42-.18.61-.3.19-.12.34-.26.47-.43v-2.45Z"/><path class="cls-1" d="m148.07,228.81l1.03-.36c.09-.03.16-.07.22-.13.06-.06.09-.14.09-.25v-5.78c0-.14-.04-.25-.12-.32-.08-.07-.15-.12-.21-.15l-1.09-.47v-.7l3-.41v1.94h.11c.28-.4.55-.73.79-.99.24-.26.47-.46.7-.62s.43-.26.64-.32c.21-.06.41-.09.62-.09.13,0,.26,0,.41.02s.29.04.43.08.29.09.42.16c.14.07.26.16.38.28v2.07h-1.17l-.24-.61c-.03-.07-.07-.14-.13-.2s-.13-.11-.21-.16c-.08-.04-.17-.08-.26-.1s-.19-.04-.28-.04c-.25,0-.47.05-.67.14s-.38.21-.55.35c-.17.14-.32.29-.46.46-.14.16-.27.32-.4.47v4.97c0,.11.03.19.09.25s.13.1.23.13l1.33.36v.67h-4.7v-.67Z"/><path class="cls-1" d="m157.18,231.57h.43c.07.04.16.08.28.12.11.04.23.08.35.11s.23.06.34.09.19.03.24.03c.29,0,.54-.02.73-.07.19-.04.36-.12.5-.23.1-.08.19-.17.27-.29.08-.12.17-.28.26-.47.09-.19.19-.43.3-.7.11-.28.23-.61.38-1l-.58-.92-2.89-6.48c-.04-.1-.1-.18-.16-.23-.07-.06-.14-.1-.23-.14l-.66-.33v-.65h3.97v.65l-1.23.44,2.09,4.6.38,1.02h.18l2.05-5.32-1.1-.75v-.65h3.4v.65l-.77.57c-.06.04-.13.1-.22.17-.08.07-.14.14-.17.22l-3.45,8.86c-.21.53-.43.97-.67,1.32-.24.35-.5.62-.78.83-.28.21-.57.35-.88.43-.31.08-.63.12-.96.12-.06,0-.15,0-.27-.02-.12-.01-.26-.02-.4-.04s-.28-.04-.42-.06-.24-.05-.31-.08v-1.82Z"/><path class="cls-1" d="m172.57,228.8l.88-.43c.09-.04.17-.11.25-.19.07-.08.12-.17.16-.25l3.35-8.53.95-1.98h1.11l4.17,10.55c.03.08.08.17.14.25.06.09.13.15.22.18l.92.39v.68h-4.44v-.68l1.37-.54-1.13-2.87h-4.44l-1.06,2.82,1.39.59v.68h-3.82v-.68Zm7.49-4.71l-1.35-3.3-.29-1.1h-.18l-1.73,4.4h3.55Z"/><path class="cls-1" d="m185.49,228.81l.82-.39c.09-.04.18-.11.27-.18s.17-.16.24-.24l2.44-2.97-2.36-3.21c-.07-.1-.14-.18-.22-.25-.07-.07-.16-.13-.26-.16l-.86-.33v-.65h3.78v.65l-.68.41,1.26,1.71.47.93h.11l1.94-2.51-.51-.54v-.65h2.89v.65l-.82.41c-.08.04-.16.09-.24.17-.08.07-.17.16-.24.25l-2.37,2.85,2.44,3.33c.08.1.16.19.24.27.08.07.17.13.25.16l.83.31v.67h-3.78v-.67l.7-.39-1.37-1.85-.47-.92h-.11l-2.01,2.63.52.53v.67h-2.91v-.67Z"/><path class="cls-1" d="m204.58,227.22v1.05c-.22.17-.47.34-.75.5-.28.17-.59.32-.92.45-.33.13-.68.24-1.05.33-.37.08-.75.13-1.13.13-.62,0-1.19-.1-1.73-.3-.54-.2-1-.5-1.4-.9s-.71-.88-.94-1.46c-.23-.58-.34-1.25-.34-2,0-.69.11-1.33.33-1.91.22-.59.52-1.1.91-1.53.39-.43.85-.77,1.39-1.01s1.13-.37,1.78-.37,1.16.1,1.64.29c.48.19.89.45,1.22.78.33.33.59.71.77,1.15.18.44.27.9.27,1.4,0,.05,0,.12,0,.21,0,.08,0,.17-.01.27,0,.09-.01.18-.02.27-.01.09-.02.16-.04.22h-6.43c0,1.2.28,2.1.85,2.7s1.36.9,2.37.9c.32,0,.62-.04.92-.11.29-.08.57-.17.83-.29.26-.11.49-.24.7-.37s.39-.25.54-.36h.28Zm-1.81-3.41c0-.42-.04-.78-.11-1.11-.08-.32-.2-.6-.37-.82s-.39-.39-.67-.51-.61-.18-1-.18c-.34,0-.65.06-.94.17-.29.12-.54.28-.76.51-.22.22-.4.5-.53.82s-.22.7-.25,1.12h4.63Z"/><path class="cls-1" d="m103.33,250.4l1.33-.46c.07-.03.14-.07.2-.13.06-.06.09-.15.09-.27v-8.84c0-.11-.03-.19-.08-.25-.05-.05-.12-.09-.21-.12l-1.33-.47v-.66h5.02v.66l-1.32.47c-.08.03-.15.07-.21.12-.06.05-.09.14-.09.25v9.25h4.25s.08,0,.12-.02.08-.03.11-.06c.03-.02.06-.06.09-.1.02-.04.04-.09.04-.14l.29-2.48h1.15v3.91h-9.45v-.68Z"/><path class="cls-1" d="m118.88,251.29c-.65,0-1.25-.11-1.8-.33-.54-.22-1.01-.53-1.39-.94-.39-.41-.69-.9-.9-1.49-.21-.59-.32-1.25-.32-1.98,0-.68.1-1.3.31-1.89s.51-1.08.9-1.51c.39-.43.86-.76,1.42-1.01.55-.24,1.17-.36,1.86-.36.75,0,1.4.13,1.95.38.55.26,1.01.6,1.38,1.04.36.43.63.94.81,1.51.18.57.27,1.18.27,1.81,0,.67-.11,1.3-.31,1.88-.21.58-.51,1.08-.9,1.51-.39.43-.86.76-1.41,1.01-.55.25-1.18.37-1.87.37Zm.12-1.01c.48,0,.88-.11,1.2-.33.32-.22.58-.5.76-.85.19-.35.32-.73.4-1.15s.12-.84.12-1.25c0-.5-.05-.98-.14-1.45-.09-.47-.25-.89-.46-1.25-.21-.37-.49-.66-.82-.88-.33-.22-.74-.33-1.22-.33-.32,0-.61.05-.85.15-.25.1-.46.24-.65.41-.19.17-.34.38-.47.61-.13.23-.23.48-.31.74s-.14.53-.17.81c-.03.28-.05.55-.05.82,0,.3.02.61.05.92s.1.61.18.9c.08.29.19.57.33.82.13.26.3.48.49.67s.43.35.69.46c.26.11.57.17.9.17Z"/><path class="cls-1" d="m125.19,250.41l1.04-.36c.09-.03.17-.08.22-.13.06-.05.09-.14.09-.25v-5.9c0-.11-.03-.19-.09-.24-.06-.05-.13-.1-.22-.13l-1.02-.44v-.7l2.86-.41v1.42h.13c.26-.33.51-.59.76-.79.25-.2.5-.35.75-.45s.49-.17.74-.21c.24-.03.48-.05.72-.05.39,0,.77.06,1.12.17s.66.29.92.54c.26.25.47.56.62.94.15.38.23.84.23,1.37v4.83c0,.13.03.23.09.29.06.06.13.1.22.13l.92.36v.67h-4.09v-.67l.82-.36c.09-.04.17-.09.24-.14s.1-.14.1-.27v-4.07c0-.39-.02-.74-.07-1.04-.05-.3-.14-.55-.28-.76-.14-.21-.34-.36-.59-.47-.26-.11-.59-.16-1-.16-.18,0-.37.01-.57.04s-.39.07-.58.13c-.19.06-.37.15-.55.26-.17.11-.33.25-.46.41v5.71c0,.11.03.19.1.25.07.06.14.1.22.13l.76.36v.67h-4.14v-.67Z"/><path class="cls-1" d="m143.7,249.72h-.14c-.25.37-.51.65-.79.86-.28.21-.56.36-.84.46s-.53.16-.77.18c-.24.02-.44.03-.61.03-.56,0-1.06-.11-1.5-.33-.44-.22-.82-.53-1.13-.92-.31-.39-.54-.86-.71-1.39-.16-.54-.25-1.12-.25-1.74,0-.7.1-1.36.3-1.98s.48-1.16.86-1.62.82-.83,1.36-1.09c.53-.27,1.14-.4,1.81-.4.27,0,.51.02.73.07.22.05.42.12.61.2.19.08.35.18.5.28.15.11.28.22.39.33v-2.73c0-.11-.03-.19-.09-.25-.06-.05-.13-.1-.22-.13l-1.36-.52v-.7h3.37v10.99c0,.11.03.19.1.25s.14.1.22.13l1.03.44v.7l-2.88.41v-1.53Zm-.18-6.38c-.11-.07-.25-.13-.43-.18-.18-.05-.36-.09-.55-.12-.19-.03-.37-.06-.55-.07-.18-.01-.32-.02-.44-.02-.47,0-.88.09-1.23.27-.35.18-.63.42-.86.72s-.4.66-.51,1.06c-.11.4-.17.83-.17,1.29,0,.52.05,1.01.16,1.46s.26.84.48,1.17c.22.33.5.59.84.78.34.19.76.28,1.24.28.15,0,.31-.02.5-.05.18-.04.37-.09.56-.16.19-.07.37-.17.54-.28.17-.11.31-.25.42-.42v-5.72Z"/><path class="cls-1" d="m152.66,251.29c-.65,0-1.25-.11-1.8-.33-.54-.22-1.01-.53-1.39-.94-.39-.41-.69-.9-.9-1.49-.21-.59-.32-1.25-.32-1.98,0-.68.1-1.3.31-1.89s.51-1.08.9-1.51c.39-.43.86-.76,1.42-1.01.55-.24,1.17-.36,1.86-.36.75,0,1.4.13,1.95.38.55.26,1.01.6,1.38,1.04.36.43.63.94.81,1.51.18.57.27,1.18.27,1.81,0,.67-.11,1.3-.31,1.88-.21.58-.51,1.08-.9,1.51-.39.43-.86.76-1.41,1.01-.55.25-1.18.37-1.87.37Zm.12-1.01c.48,0,.88-.11,1.2-.33.32-.22.58-.5.76-.85.19-.35.32-.73.4-1.15s.12-.84.12-1.25c0-.5-.05-.98-.14-1.45-.09-.47-.25-.89-.46-1.25-.21-.37-.49-.66-.82-.88-.33-.22-.74-.33-1.22-.33-.32,0-.61.05-.85.15-.25.1-.46.24-.65.41-.19.17-.34.38-.47.61-.13.23-.23.48-.31.74s-.14.53-.17.81c-.03.28-.05.55-.05.82,0,.3.02.61.05.92s.1.61.18.9c.08.29.19.57.33.82.13.26.3.48.49.67s.43.35.69.46c.26.11.57.17.9.17Z"/><path class="cls-1" d="m158.98,250.41l1.04-.36c.09-.03.17-.08.22-.13.06-.05.09-.14.09-.25v-5.9c0-.11-.03-.19-.09-.24-.06-.05-.13-.1-.22-.13l-1.02-.44v-.7l2.86-.41v1.42h.13c.26-.33.51-.59.76-.79.25-.2.5-.35.75-.45s.49-.17.74-.21c.24-.03.48-.05.72-.05.39,0,.77.06,1.12.17s.66.29.92.54c.26.25.47.56.62.94.15.38.23.84.23,1.37v4.83c0,.13.03.23.09.29.06.06.13.1.22.13l.92.36v.67h-4.09v-.67l.82-.36c.09-.04.17-.09.24-.14s.1-.14.1-.27v-4.07c0-.39-.02-.74-.07-1.04-.05-.3-.14-.55-.28-.76-.14-.21-.34-.36-.59-.47-.26-.11-.59-.16-1-.16-.18,0-.37.01-.57.04s-.39.07-.58.13c-.19.06-.37.15-.55.26-.17.11-.33.25-.46.41v5.71c0,.11.03.19.1.25.07.06.14.1.22.13l.76.36v.67h-4.14v-.67Z"/></svg>